<?xml version="1.0" encoding="iso-8859-1"?>
<!-- Generator: Adobe Illustrator 19.0.0, SVG Export Plug-In . SVG Version: 6.00 Build 0)  -->
<svg version="1.1" id="Capa_1" xmlns="http://www.w3.org/2000/svg" xmlns:xlink="http://www.w3.org/1999/xlink" x="0px" y="0px"
	 viewBox="0 0 368 368" style="enable-background:new 0 0 368 368;" xml:space="preserve">
<path style="fill:#CCE4FF;" d="M240,8l72,256h-64l-24-80h-80l-24,80H56L128,8H240z M216,136l-16-80h-32l-16,80H216z"/>
<g>
	<path style="fill:#007AFF;" d="M16,312v48c0,4.416,3.584,8,8,8h320c4.416,0,8-3.584,8-8v-48c0-4.416-3.584-8-8-8H24
		C19.584,304,16,307.584,16,312z M32,320h304v32H32V320z"/>
	<path style="fill:#007AFF;" d="M247.704,5.832C246.728,2.384,243.584,0,240,0H128c-3.584,0-6.728,2.384-7.704,5.832l-72,256
		c-0.672,2.408-0.184,5,1.328,7c1.512,2,3.872,3.168,6.376,3.168h64c3.528,0,6.648-2.32,7.664-5.704L149.952,192h68.096
		l22.288,74.296C241.352,269.68,244.472,272,248,272h64c2.504,0,4.864-1.168,6.376-3.168s2-4.584,1.328-7L247.704,5.832z
		 M253.952,256l-22.288-74.296C230.648,178.32,227.528,176,224,176h-80c-3.528,0-6.648,2.32-7.664,5.704L114.048,256H66.56
		l67.504-240h99.88l67.504,240H253.952z"/>
	<path style="fill:#007AFF;" d="M200,48h-32c-3.816,0-7.096,2.688-7.84,6.432l-16,80c-0.472,2.352,0.136,4.792,1.656,6.64
		C147.336,142.928,149.6,144,152,144h64c2.4,0,4.664-1.072,6.184-2.928c1.52-1.848,2.128-4.288,1.656-6.64l-16-80
		C207.096,50.688,203.816,48,200,48z M161.76,128l12.8-64h18.88l12.8,64H161.76z"/>
</g>
</svg>
